<?xml version="1.0" encoding="UTF-8" standalone="no"?>
<!-- Created with Inkscape (http://www.inkscape.org/) -->

<svg
   xmlns:dc="http://purl.org/dc/elements/1.1/"
   xmlns:cc="http://creativecommons.org/ns#"
   xmlns:rdf="http://www.w3.org/1999/02/22-rdf-syntax-ns#"
   xmlns:svg="http://www.w3.org/2000/svg"
   xmlns="http://www.w3.org/2000/svg"
   xmlns:sodipodi="http://sodipodi.sourceforge.net/DTD/sodipodi-0.dtd"
   xmlns:inkscape="http://www.inkscape.org/namespaces/inkscape"
   width="184.70876mm"
   height="96.708023mm"
   viewBox="0 0 654.47984 342.66622"
   id="svg2"
   version="1.1"
   inkscape:version="0.91 r13725"
   sodipodi:docname="494.svg">
  <defs
     id="defs4">
    <marker
       inkscape:stockid="Arrow1Lstart"
       orient="auto"
       refY="0"
       refX="0"
       id="marker4664"
       style="overflow:visible"
       inkscape:isstock="true">
      <path
         id="path4666"
         d="M 0,0 5,-5 -12.5,0 5,5 0,0 Z"
         style="fill:#000000;fill-opacity:1;fill-rule:evenodd;stroke:#000000;stroke-width:1pt;stroke-opacity:1"
         transform="matrix(0.8,0,0,0.8,10,0)"
         inkscape:connector-curvature="0" />
    </marker>
    <marker
       inkscape:stockid="Arrow1Lstart"
       orient="auto"
       refY="0"
       refX="0"
       id="marker4612"
       style="overflow:visible"
       inkscape:isstock="true">
      <path
         id="path4614"
         d="M 0,0 5,-5 -12.5,0 5,5 0,0 Z"
         style="fill:#000000;fill-opacity:1;fill-rule:evenodd;stroke:#000000;stroke-width:1pt;stroke-opacity:1"
         transform="matrix(0.8,0,0,0.8,10,0)"
         inkscape:connector-curvature="0" />
    </marker>
    <marker
       inkscape:stockid="Arrow1Lstart"
       orient="auto"
       refY="0"
       refX="0"
       id="marker4566"
       style="overflow:visible"
       inkscape:isstock="true">
      <path
         id="path4568"
         d="M 0,0 5,-5 -12.5,0 5,5 0,0 Z"
         style="fill:#000000;fill-opacity:1;fill-rule:evenodd;stroke:#000000;stroke-width:1pt;stroke-opacity:1"
         transform="matrix(0.8,0,0,0.8,10,0)"
         inkscape:connector-curvature="0" />
    </marker>
    <marker
       inkscape:stockid="Arrow1Lstart"
       orient="auto"
       refY="0"
       refX="0"
       id="marker4526"
       style="overflow:visible"
       inkscape:isstock="true">
      <path
         id="path4528"
         d="M 0,0 5,-5 -12.5,0 5,5 0,0 Z"
         style="fill:#000000;fill-opacity:1;fill-rule:evenodd;stroke:#000000;stroke-width:1pt;stroke-opacity:1"
         transform="matrix(0.8,0,0,0.8,10,0)"
         inkscape:connector-curvature="0" />
    </marker>
    <marker
       inkscape:stockid="Arrow1Lstart"
       orient="auto"
       refY="0"
       refX="0"
       id="marker4492"
       style="overflow:visible"
       inkscape:isstock="true">
      <path
         id="path4494"
         d="M 0,0 5,-5 -12.5,0 5,5 0,0 Z"
         style="fill:#000000;fill-opacity:1;fill-rule:evenodd;stroke:#000000;stroke-width:1pt;stroke-opacity:1"
         transform="matrix(0.8,0,0,0.8,10,0)"
         inkscape:connector-curvature="0" />
    </marker>
    <marker
       inkscape:stockid="Arrow1Lstart"
       orient="auto"
       refY="0"
       refX="0"
       id="marker4464"
       style="overflow:visible"
       inkscape:isstock="true">
      <path
         id="path4466"
         d="M 0,0 5,-5 -12.5,0 5,5 0,0 Z"
         style="fill:#000000;fill-opacity:1;fill-rule:evenodd;stroke:#000000;stroke-width:1pt;stroke-opacity:1"
         transform="matrix(0.8,0,0,0.8,10,0)"
         inkscape:connector-curvature="0" />
    </marker>
    <marker
       inkscape:stockid="Arrow1Lstart"
       orient="auto"
       refY="0"
       refX="0"
       id="marker4442"
       style="overflow:visible"
       inkscape:isstock="true">
      <path
         id="path4444"
         d="M 0,0 5,-5 -12.5,0 5,5 0,0 Z"
         style="fill:#000000;fill-opacity:1;fill-rule:evenodd;stroke:#000000;stroke-width:1pt;stroke-opacity:1"
         transform="matrix(0.8,0,0,0.8,10,0)"
         inkscape:connector-curvature="0" />
    </marker>
    <marker
       inkscape:stockid="Arrow1Lstart"
       orient="auto"
       refY="0"
       refX="0"
       id="Arrow1Lstart"
       style="overflow:visible"
       inkscape:isstock="true">
      <path
         id="path4172"
         d="M 0,0 5,-5 -12.5,0 5,5 0,0 Z"
         style="fill:#000000;fill-opacity:1;fill-rule:evenodd;stroke:#000000;stroke-width:1pt;stroke-opacity:1"
         transform="matrix(0.8,0,0,0.8,10,0)"
         inkscape:connector-curvature="0" />
    </marker>
    <marker
       inkscape:stockid="Arrow1Lstart"
       orient="auto"
       refY="0"
       refX="0"
       id="marker4664-3"
       style="overflow:visible"
       inkscape:isstock="true">
      <path
         inkscape:connector-curvature="0"
         id="path4666-5"
         d="M 0,0 5,-5 -12.5,0 5,5 0,0 Z"
         style="fill:#000000;fill-opacity:1;fill-rule:evenodd;stroke:#000000;stroke-width:1pt;stroke-opacity:1"
         transform="matrix(0.8,0,0,0.8,10,0)" />
    </marker>
    <marker
       inkscape:stockid="Arrow1Lstart"
       orient="auto"
       refY="0"
       refX="0"
       id="marker4664-1"
       style="overflow:visible"
       inkscape:isstock="true">
      <path
         inkscape:connector-curvature="0"
         id="path4666-2"
         d="M 0,0 5,-5 -12.5,0 5,5 0,0 Z"
         style="fill:#ff0000;fill-opacity:1;fill-rule:evenodd;stroke:#ff0000;stroke-width:1pt;stroke-opacity:1"
         transform="matrix(0.8,0,0,0.8,10,0)" />
    </marker>
    <marker
       inkscape:stockid="Arrow1Lstart"
       orient="auto"
       refY="0"
       refX="0"
       id="marker4664-1-0"
       style="overflow:visible"
       inkscape:isstock="true">
      <path
         inkscape:connector-curvature="0"
         id="path4666-2-9"
         d="M 0,0 5,-5 -12.5,0 5,5 0,0 Z"
         style="fill:#ff0000;fill-opacity:1;fill-rule:evenodd;stroke:#ff0000;stroke-width:1pt;stroke-opacity:1"
         transform="matrix(0.8,0,0,0.8,10,0)" />
    </marker>
    <marker
       inkscape:stockid="Arrow1Lstart"
       orient="auto"
       refY="0"
       refX="0"
       id="marker4664-8"
       style="overflow:visible"
       inkscape:isstock="true">
      <path
         inkscape:connector-curvature="0"
         id="path4666-7"
         d="M 0,0 5,-5 -12.5,0 5,5 0,0 Z"
         style="fill:#000000;fill-opacity:1;fill-rule:evenodd;stroke:#000000;stroke-width:1pt;stroke-opacity:1"
         transform="matrix(0.8,0,0,0.8,10,0)" />
    </marker>
    <marker
       inkscape:stockid="Arrow1Lstart"
       orient="auto"
       refY="0"
       refX="0"
       id="marker4664-8-2"
       style="overflow:visible"
       inkscape:isstock="true">
      <path
         inkscape:connector-curvature="0"
         id="path4666-7-0"
         d="M 0,0 5,-5 -12.5,0 5,5 0,0 Z"
         style="fill:#000000;fill-opacity:1;fill-rule:evenodd;stroke:#000000;stroke-width:1pt;stroke-opacity:1"
         transform="matrix(0.8,0,0,0.8,10,0)" />
    </marker>
    <marker
       inkscape:stockid="Arrow1Lstart"
       orient="auto"
       refY="0"
       refX="0"
       id="marker4664-8-3"
       style="overflow:visible"
       inkscape:isstock="true">
      <path
         inkscape:connector-curvature="0"
         id="path4666-7-7"
         d="M 0,0 5,-5 -12.5,0 5,5 0,0 Z"
         style="fill:#000000;fill-opacity:1;fill-rule:evenodd;stroke:#000000;stroke-width:1pt;stroke-opacity:1"
         transform="matrix(0.8,0,0,0.8,10,0)" />
    </marker>
    <marker
       inkscape:stockid="Arrow1Lstart"
       orient="auto"
       refY="0"
       refX="0"
       id="marker4664-8-3-9"
       style="overflow:visible"
       inkscape:isstock="true">
      <path
         inkscape:connector-curvature="0"
         id="path4666-7-7-2"
         d="M 0,0 5,-5 -12.5,0 5,5 0,0 Z"
         style="fill:#000000;fill-opacity:1;fill-rule:evenodd;stroke:#000000;stroke-width:1pt;stroke-opacity:1"
         transform="matrix(0.8,0,0,0.8,10,0)" />
    </marker>
  </defs>
  <sodipodi:namedview
     id="base"
     pagecolor="#ffffff"
     bordercolor="#666666"
     borderopacity="1.0"
     inkscape:pageopacity="0.0"
     inkscape:pageshadow="2"
     inkscape:zoom="0.98994949"
     inkscape:cx="169.7381"
     inkscape:cy="173.02989"
     inkscape:document-units="px"
     inkscape:current-layer="layer1"
     showgrid="false"
     inkscape:snap-text-baseline="true"
     inkscape:window-width="1535"
     inkscape:window-height="876"
     inkscape:window-x="65"
     inkscape:window-y="24"
     inkscape:window-maximized="1"
     fit-margin-top="0"
     fit-margin-left="0"
     fit-margin-right="0"
     fit-margin-bottom="0" />
  <metadata
     id="metadata7">
    <rdf:RDF>
      <cc:Work
         rdf:about="">
        <dc:format>image/svg+xml</dc:format>
        <dc:type
           rdf:resource="http://purl.org/dc/dcmitype/StillImage" />
        <dc:title />
      </cc:Work>
    </rdf:RDF>
  </metadata>
  <g
     inkscape:label="Layer 1"
     inkscape:groupmode="layer"
     id="layer1"
     transform="translate(-37.643696,-406.29636)">
    <g
       style="font-style:normal;font-weight:normal;font-size:40px;line-height:125%;font-family:sans-serif;letter-spacing:0px;word-spacing:0px;fill:#000000;fill-opacity:1;stroke:none;stroke-width:1px;stroke-linecap:butt;stroke-linejoin:miter;stroke-opacity:1"
       id="text4136">
      <path
         d="m 243.8309,406.29636 q -2.61719,4.49218 -3.88672,8.88671 -1.26953,4.39454 -1.26953,8.90625 0,4.51172 1.26953,8.94532 1.28907,4.41406 3.88672,8.88672 l -3.125,0 q -2.92969,-4.58985 -4.39453,-9.02344 -1.44531,-4.4336 -1.44531,-8.8086 0,-4.35546 1.44531,-8.76953 1.44531,-4.41406 4.39453,-9.02343 l 3.125,0 z"
         style=""
         id="path4470" />
      <path
         d="m 265.452,411.56979 0,10.87891 10.8789,0 0,3.32031 -10.8789,0 0,10.87891 -3.28125,0 0,-10.87891 -10.87891,0 0,-3.32031 10.87891,0 0,-10.87891 3.28125,0 z"
         style=""
         id="path4472" />
      <path
         d="m 285.53012,433.32761 6.44531,0 0,-22.2461 -7.01172,1.40625 0,-3.59375 6.97266,-1.40625 3.94531,0 0,25.83985 6.44532,0 0,3.32031 -16.79688,0 0,-3.32031 z"
         style=""
         id="path4474" />
      <path
         d="m 310.72543,431.68698 4.1211,0 0,3.35938 -3.20313,6.25 -2.51953,0 1.60156,-6.25 0,-3.35938 z"
         style=""
         id="path4476" />
      <path
         d="m 336.46762,433.32761 6.44531,0 0,-22.2461 -7.01172,1.40625 0,-3.59375 6.97266,-1.40625 3.94531,0 0,25.83985 6.44532,0 0,3.32031 -16.79688,0 0,-3.32031 z"
         style=""
         id="path4478" />
      <path
         d="m 360.17856,406.29636 3.125,0 q 2.92969,4.60937 4.375,9.02343 1.46484,4.41407 1.46484,8.76953 0,4.375 -1.46484,8.8086 -1.44531,4.43359 -4.375,9.02344 l -3.125,0 q 2.59765,-4.47266 3.86719,-8.88672 1.28906,-4.4336 1.28906,-8.94532 0,-4.51171 -1.28906,-8.90625 -1.26954,-4.39453 -3.86719,-8.88671 z"
         style=""
         id="path4480" />
      <path
         d="m 377.28793,431.68698 4.1211,0 0,3.35938 -3.20313,6.25 -2.51953,0 1.60156,-6.25 0,-3.35938 z"
         style=""
         id="path4482" />
      <path
         d="m 410.47153,406.29636 q -2.61719,4.49218 -3.88672,8.88671 -1.26953,4.39454 -1.26953,8.90625 0,4.51172 1.26953,8.94532 1.28906,4.41406 3.88672,8.88672 l -3.125,0 q -2.92969,-4.58985 -4.39453,-9.02344 -1.44532,-4.4336 -1.44532,-8.8086 0,-4.35546 1.44532,-8.76953 1.44531,-4.41406 4.39453,-9.02343 l 3.125,0 z"
         style=""
         id="path4484" />
      <path
         d="m 415.64731,424.08932 10.52734,0 0,3.20313 -10.52734,0 0,-3.20313 z"
         style=""
         id="path4486" />
      <path
         d="m 433.10825,433.32761 6.44531,0 0,-22.2461 -7.01172,1.40625 0,-3.59375 6.97266,-1.40625 3.94531,0 0,25.83985 6.44531,0 0,3.32031 -16.79687,0 0,-3.32031 z"
         style=""
         id="path4488" />
      <path
         d="m 458.30356,431.68698 4.12109,0 0,3.35938 -3.20312,6.25 -2.51953,0 1.60156,-6.25 0,-3.35938 z"
         style=""
         id="path4490" />
      <path
         d="m 484.04575,433.32761 6.44531,0 0,-22.2461 -7.01172,1.40625 0,-3.59375 6.97266,-1.40625 3.94531,0 0,25.83985 6.44531,0 0,3.32031 -16.79687,0 0,-3.32031 z"
         style=""
         id="path4492" />
      <path
         d="m 507.75668,406.29636 3.125,0 q 2.92969,4.60937 4.375,9.02343 1.46485,4.41407 1.46485,8.76953 0,4.375 -1.46485,8.8086 -1.44531,4.43359 -4.375,9.02344 l -3.125,0 q 2.59766,-4.47266 3.86719,-8.88672 1.28906,-4.4336 1.28906,-8.94532 0,-4.51171 -1.28906,-8.90625 -1.26953,-4.39453 -3.86719,-8.88671 z"
         style=""
         id="path4495" />
    </g>
    <g
       style="font-style:normal;font-weight:normal;font-size:40px;line-height:125%;font-family:sans-serif;letter-spacing:0px;word-spacing:0px;fill:#000000;fill-opacity:1;stroke:none;stroke-width:1px;stroke-linecap:butt;stroke-linejoin:miter;stroke-opacity:1"
       id="text4136-3">
      <path
         d="m 46.60854,563.12109 q -2.617188,4.49219 -3.886719,8.88672 -1.269531,4.39453 -1.269531,8.90625 0,4.51172 1.269531,8.94531 1.289062,4.41407 3.886719,8.88672 l -3.125,0 q -2.929688,-4.58984 -4.394532,-9.02343 -1.445312,-4.4336 -1.445312,-8.8086 0,-4.35547 1.445312,-8.76953 1.445313,-4.41406 4.394532,-9.02344 l 3.125,0 z"
         style=""
         id="path4498" />
      <path
         d="m 68.229633,568.39453 0,10.87891 10.878907,0 0,3.32031 -10.878907,0 0,10.87891 -3.28125,0 0,-10.87891 -10.878906,0 0,-3.32031 10.878906,0 0,-10.87891 3.28125,0 z"
         style=""
         id="path4500" />
      <path
         d="m 91.022602,590.15234 13.769528,0 0,3.32032 -18.515622,0 0,-3.32032 q 2.246094,-2.32422 6.113282,-6.23047 3.886718,-3.92578 4.882812,-5.05859 1.894531,-2.12891 2.636719,-3.59375 0.761719,-1.48437 0.761719,-2.91016 0,-2.32421 -1.640625,-3.78906 -1.621094,-1.46484 -4.238282,-1.46484 -1.855468,0 -3.925781,0.64453 -2.050781,0.64453 -4.394531,1.95312 l 0,-3.98437 q 2.382812,-0.95703 4.453125,-1.44531 2.070312,-0.48828 3.789062,-0.48828 4.53125,0 7.226562,2.26562 2.69531,2.26563 2.69531,6.05469 0,1.79687 -0.68359,3.41797 -0.66406,1.60156 -2.44141,3.78906 -0.48828,0.56641 -3.105465,3.28125 -2.617188,2.69531 -7.382813,7.55859 z"
         style=""
         id="path4502" />
      <path
         d="m 113.50307,588.51172 4.12109,0 0,3.35937 -3.20312,6.25 -2.51953,0 1.60156,-6.25 0,-3.35937 z"
         style=""
         id="path4504" />
      <path
         d="m 139.24526,590.15234 6.44531,0 0,-22.24609 -7.01172,1.40625 0,-3.59375 6.97266,-1.40625 3.94531,0 0,25.83984 6.44531,0 0,3.32032 -16.79687,0 0,-3.32032 z"
         style=""
         id="path4506" />
      <path
         d="m 162.9562,563.12109 3.125,0 q 2.92968,4.60938 4.375,9.02344 1.46484,4.41406 1.46484,8.76953 0,4.375 -1.46484,8.8086 -1.44532,4.43359 -4.375,9.02343 l -3.125,0 q 2.59765,-4.47265 3.86718,-8.88672 1.28907,-4.43359 1.28907,-8.94531 0,-4.51172 -1.28907,-8.90625 -1.26953,-4.39453 -3.86718,-8.88672 z"
         style=""
         id="path4508" />
      <path
         d="m 180.06557,588.51172 4.12109,0 0,3.35937 -3.20312,6.25 -2.51953,0 1.60156,-6.25 0,-3.35937 z"
         style=""
         id="path4510" />
      <path
         d="m 213.24916,563.12109 q -2.61718,4.49219 -3.88671,8.88672 -1.26954,4.39453 -1.26954,8.90625 0,4.51172 1.26954,8.94531 1.28906,4.41407 3.88671,8.88672 l -3.125,0 q -2.92968,-4.58984 -4.39453,-9.02343 -1.44531,-4.4336 -1.44531,-8.8086 0,-4.35547 1.44531,-8.76953 1.44532,-4.41406 4.39453,-9.02344 l 3.125,0 z"
         style=""
         id="path4512" />
      <path
         d="m 229.18666,566.91016 q -3.04687,0 -4.58984,3.00781 -1.52344,2.98828 -1.52344,9.0039 0,5.9961 1.52344,9.00391 1.54297,2.98828 4.58984,2.98828 3.06641,0 4.58985,-2.98828 1.54297,-3.00781 1.54297,-9.00391 0,-6.01562 -1.54297,-9.0039 -1.52344,-3.00781 -4.58985,-3.00781 z m 0,-3.125 q 4.90235,0 7.48047,3.88671 2.59766,3.86719 2.59766,11.25 0,7.36329 -2.59766,11.25 -2.57812,3.86719 -7.48047,3.86719 -4.90234,0 -7.5,-3.86719 -2.57812,-3.88671 -2.57812,-11.25 0,-7.38281 2.57812,-11.25 2.59766,-3.88671 7.5,-3.88671 z"
         style=""
         id="path4514" />
      <path
         d="m 246.62807,588.51172 4.12109,0 0,3.35937 -3.20312,6.25 -2.51953,0 1.60156,-6.25 0,-3.35937 z"
         style=""
         id="path4516" />
      <path
         d="m 272.37026,590.15234 6.44531,0 0,-22.24609 -7.01172,1.40625 0,-3.59375 6.97266,-1.40625 3.94531,0 0,25.83984 6.44531,0 0,3.32032 -16.79687,0 0,-3.32032 z"
         style=""
         id="path4518" />
      <path
         d="m 296.0812,563.12109 3.125,0 q 2.92968,4.60938 4.375,9.02344 1.46484,4.41406 1.46484,8.76953 0,4.375 -1.46484,8.8086 -1.44532,4.43359 -4.375,9.02343 l -3.125,0 q 2.59765,-4.47265 3.86718,-8.88672 1.28907,-4.43359 1.28907,-8.94531 0,-4.51172 -1.28907,-8.90625 -1.26953,-4.39453 -3.86718,-8.88672 z"
         style=""
         id="path4520" />
    </g>
    <g
       style="font-style:normal;font-weight:normal;font-size:40px;line-height:125%;font-family:sans-serif;letter-spacing:0px;word-spacing:0px;fill:#000000;fill-opacity:1;stroke:none;stroke-width:1px;stroke-linecap:butt;stroke-linejoin:miter;stroke-opacity:1"
       id="text4136-7">
      <path
         d="m 444.03711,563.12109 q -2.61719,4.49219 -3.88672,8.88672 -1.26953,4.39453 -1.26953,8.90625 0,4.51172 1.26953,8.94531 1.28906,4.41407 3.88672,8.88672 l -3.125,0 q -2.92969,-4.58984 -4.39453,-9.02343 -1.44531,-4.4336 -1.44531,-8.8086 0,-4.35547 1.44531,-8.76953 1.44531,-4.41406 4.39453,-9.02344 l 3.125,0 z"
         style=""
         id="path4523" />
      <path
         d="m 459.97461,566.91016 q -3.04688,0 -4.58984,3.00781 -1.52344,2.98828 -1.52344,9.0039 0,5.9961 1.52344,9.00391 1.54296,2.98828 4.58984,2.98828 3.06641,0 4.58984,-2.98828 1.54297,-3.00781 1.54297,-9.00391 0,-6.01562 -1.54297,-9.0039 -1.52343,-3.00781 -4.58984,-3.00781 z m 0,-3.125 q 4.90234,0 7.48047,3.88671 2.59765,3.86719 2.59765,11.25 0,7.36329 -2.59765,11.25 -2.57813,3.86719 -7.48047,3.86719 -4.90234,0 -7.5,-3.86719 -2.57813,-3.88671 -2.57813,-11.25 0,-7.38281 2.57813,-11.25 2.59766,-3.88671 7.5,-3.88671 z"
         style=""
         id="path4525" />
      <path
         d="m 477.41602,588.51172 4.12109,0 0,3.35937 -3.20313,6.25 -2.51953,0 1.60157,-6.25 0,-3.35937 z"
         style=""
         id="path4527" />
      <path
         d="m 503.1582,590.15234 6.44532,0 0,-22.24609 -7.01172,1.40625 0,-3.59375 6.97265,-1.40625 3.94532,0 0,25.83984 6.44531,0 0,3.32032 -16.79688,0 0,-3.32032 z"
         style=""
         id="path4529" />
      <path
         d="m 526.86914,563.12109 3.125,0 q 2.92969,4.60938 4.375,9.02344 1.46484,4.41406 1.46484,8.76953 0,4.375 -1.46484,8.8086 -1.44531,4.43359 -4.375,9.02343 l -3.125,0 q 2.59766,-4.47265 3.86719,-8.88672 1.28906,-4.43359 1.28906,-8.94531 0,-4.51172 -1.28906,-8.90625 -1.26953,-4.39453 -3.86719,-8.88672 z"
         style=""
         id="path4531" />
      <path
         d="m 543.97852,588.51172 4.12109,0 0,3.35937 -3.20313,6.25 -2.51953,0 1.60157,-6.25 0,-3.35937 z"
         style=""
         id="path4533" />
      <path
         d="m 577.16211,563.12109 q -2.61719,4.49219 -3.88672,8.88672 -1.26953,4.39453 -1.26953,8.90625 0,4.51172 1.26953,8.94531 1.28906,4.41407 3.88672,8.88672 l -3.125,0 q -2.92969,-4.58984 -4.39453,-9.02343 -1.44531,-4.4336 -1.44531,-8.8086 0,-4.35547 1.44531,-8.76953 1.44531,-4.41406 4.39453,-9.02344 l 3.125,0 z"
         style=""
         id="path4535" />
      <path
         d="m 582.33789,580.91406 10.52734,0 0,3.20313 -10.52734,0 0,-3.20313 z"
         style=""
         id="path4537" />
      <path
         d="m 602.51367,590.15234 13.76953,0 0,3.32032 -18.51562,0 0,-3.32032 q 2.24609,-2.32422 6.11328,-6.23047 3.88672,-3.92578 4.88281,-5.05859 1.89453,-2.12891 2.63672,-3.59375 0.76172,-1.48437 0.76172,-2.91016 0,-2.32421 -1.64063,-3.78906 -1.62109,-1.46484 -4.23828,-1.46484 -1.85547,0 -3.92578,0.64453 -2.05078,0.64453 -4.39453,1.95312 l 0,-3.98437 q 2.38281,-0.95703 4.45313,-1.44531 2.07031,-0.48828 3.78906,-0.48828 4.53125,0 7.22656,2.26562 2.69531,2.26563 2.69531,6.05469 0,1.79687 -0.68359,3.41797 -0.66406,1.60156 -2.44141,3.78906 -0.48828,0.56641 -3.10547,3.28125 -2.61718,2.69531 -7.38281,7.55859 z"
         style=""
         id="path4539" />
      <path
         d="m 624.99414,588.51172 4.12109,0 0,3.35937 -3.20312,6.25 -2.51953,0 1.60156,-6.25 0,-3.35937 z"
         style=""
         id="path4541" />
      <path
         d="m 650.73633,590.15234 6.44531,0 0,-22.24609 -7.01172,1.40625 0,-3.59375 6.97266,-1.40625 3.94531,0 0,25.83984 6.44531,0 0,3.32032 -16.79687,0 0,-3.32032 z"
         style=""
         id="path4543" />
      <path
         d="m 674.44727,563.12109 3.125,0 q 2.92968,4.60938 4.375,9.02344 1.46484,4.41406 1.46484,8.76953 0,4.375 -1.46484,8.8086 -1.44532,4.43359 -4.375,9.02343 l -3.125,0 q 2.59765,-4.47265 3.86718,-8.88672 1.28907,-4.43359 1.28907,-8.94531 0,-4.51172 -1.28907,-8.90625 -1.26953,-4.39453 -3.86718,-8.88672 z"
         style=""
         id="path4545" />
    </g>
    <path
       style="fill:none;fill-rule:evenodd;stroke:#000000;stroke-width:0.93804717px;stroke-linecap:butt;stroke-linejoin:miter;stroke-opacity:1;marker-start:url(#marker4664)"
       d="M 97.845458,558.48395 272.91491,443.80473"
       id="path4166" />
    <path
       style="fill:none;fill-rule:evenodd;stroke:#000000;stroke-width:0.99023116px;stroke-linecap:butt;stroke-linejoin:miter;stroke-opacity:1;marker-start:url(#marker4664-3)"
       d="M 233.16154,560.45886 425.98562,444.43224"
       id="path4166-6" />
    <g
       style="font-style:normal;font-weight:normal;font-size:40px;line-height:125%;font-family:sans-serif;letter-spacing:0px;word-spacing:0px;fill:#000000;fill-opacity:1;stroke:none;stroke-width:1px;stroke-linecap:butt;stroke-linejoin:miter;stroke-opacity:1"
       id="text5571">
      <path
         d="m 110.60438,498.07886 0,10.8789 10.8789,0 0,3.32032 -10.8789,0 0,10.8789 -3.28125,0 0,-10.8789 -10.878909,0 0,-3.32032 10.878909,0 0,-10.8789 3.28125,0 z"
         style=""
         id="path4548" />
      <path
         d="m 130.6825,519.83667 6.44532,0 0,-22.24609 -7.01172,1.40625 0,-3.59375 6.97265,-1.40625 3.94532,0 0,25.83984 6.44531,0 0,3.32031 -16.79688,0 0,-3.32031 z"
         style=""
         id="path4550" />
    </g>
    <g
       style="font-style:normal;font-weight:normal;font-size:40px;line-height:125%;font-family:sans-serif;letter-spacing:0px;word-spacing:0px;fill:#000000;fill-opacity:1;stroke:none;stroke-width:1px;stroke-linecap:butt;stroke-linejoin:miter;stroke-opacity:1"
       id="text5571-2">
      <path
         d="m 229.56354,511.03601 0,10.87891 10.8789,0 0,3.32031 -10.8789,0 0,10.87891 -3.28125,0 0,-10.87891 -10.87891,0 0,-3.32031 10.87891,0 0,-10.87891 3.28125,0 z"
         style=""
         id="path4553" />
      <path
         d="m 249.64166,532.79382 6.44532,0 0,-22.24609 -7.01172,1.40625 0,-3.59375 6.97265,-1.40625 3.94532,0 0,25.83984 6.44531,0 0,3.32032 -16.79688,0 0,-3.32032 z"
         style=""
         id="path4555" />
    </g>
    <path
       style="fill:none;fill-rule:evenodd;stroke:#ff0000;stroke-width:0.91967303px;stroke-linecap:butt;stroke-linejoin:miter;stroke-opacity:1;marker-start:url(#marker4664-1)"
       d="M 453.32561,560.01977 289.65466,442.11238"
       id="path4166-7" />
    <path
       style="fill:none;fill-rule:evenodd;stroke:#ff0000;stroke-width:0.90390086px;stroke-linecap:butt;stroke-linejoin:miter;stroke-opacity:1;marker-start:url(#marker4664-1-0)"
       d="M 600.51114,557.48119 436.83344,443.58798"
       id="path4166-7-3" />
    <g
       style="font-style:normal;font-weight:normal;font-size:40px;line-height:125%;font-family:sans-serif;letter-spacing:0px;word-spacing:0px;fill:#ff0000;fill-opacity:1;stroke:none;stroke-width:1px;stroke-linecap:butt;stroke-linejoin:miter;stroke-opacity:1"
       id="text5571-2-6">
      <path
         d="m 447.9791,520.013 10.52734,0 0,3.20313 -10.52734,0 0,-3.20313 z"
         style=""
         id="path4558" />
      <path
         d="m 465.44003,529.25128 6.44532,0 0,-22.24609 -7.01172,1.40625 0,-3.59375 6.97265,-1.40625 3.94532,0 0,25.83984 6.44531,0 0,3.32031 -16.79688,0 0,-3.32031 z"
         style=""
         id="path4560" />
    </g>
    <g
       style="font-style:normal;font-weight:normal;font-size:40px;line-height:125%;font-family:sans-serif;letter-spacing:0px;word-spacing:0px;fill:#ff0000;fill-opacity:1;stroke:none;stroke-width:1px;stroke-linecap:butt;stroke-linejoin:miter;stroke-opacity:1"
       id="text5571-2-6-6">
      <path
         d="m 571.79004,517.99274 10.52734,0 0,3.20312 -10.52734,0 0,-3.20312 z"
         style=""
         id="path4563" />
      <path
         d="m 589.25098,527.23102 6.44531,0 0,-22.2461 -7.01172,1.40625 0,-3.59375 6.97266,-1.40625 3.94531,0 0,25.83985 6.44531,0 0,3.32031 -16.79687,0 0,-3.32031 z"
         style=""
         id="path4565" />
    </g>
    <g
       style="font-style:normal;font-weight:normal;font-size:40px;line-height:125%;font-family:sans-serif;letter-spacing:0px;word-spacing:0px;fill:#000000;fill-opacity:1;stroke:none;stroke-width:1px;stroke-linecap:butt;stroke-linejoin:miter;stroke-opacity:1"
       id="text4136-3-6">
      <path
         d="m 174.26883,710.29071 q -2.61719,4.49219 -3.88672,8.88672 -1.26953,4.39453 -1.26953,8.90625 0,4.51172 1.26953,8.94531 1.28906,4.41406 3.88672,8.88672 l -3.125,0 q -2.92969,-4.58984 -4.39453,-9.02344 -1.44531,-4.43359 -1.44531,-8.80859 0,-4.35547 1.44531,-8.76953 1.44531,-4.41406 4.39453,-9.02344 l 3.125,0 z"
         style=""
         id="path4569" />
      <path
         d="m 195.88992,715.56415 0,10.8789 10.87891,0 0,3.32032 -10.87891,0 0,10.8789 -3.28125,0 0,-10.8789 -10.8789,0 0,-3.32032 10.8789,0 0,-10.8789 3.28125,0 z"
         style=""
         id="path4571" />
      <path
         d="m 218.68289,737.32196 13.76953,0 0,3.32031 -18.51562,0 0,-3.32031 q 2.24609,-2.32422 6.11328,-6.23047 3.88672,-3.92578 4.88281,-5.05859 1.89453,-2.12891 2.63672,-3.59375 0.76172,-1.48438 0.76172,-2.91016 0,-2.32422 -1.64063,-3.78906 -1.62109,-1.46484 -4.23828,-1.46484 -1.85547,0 -3.92578,0.64453 -2.05078,0.64453 -4.39453,1.95312 l 0,-3.98437 q 2.38281,-0.95703 4.45313,-1.44532 2.07031,-0.48828 3.78906,-0.48828 4.53125,0 7.22656,2.26563 2.69531,2.26562 2.69531,6.05469 0,1.79687 -0.68359,3.41796 -0.66406,1.60157 -2.44141,3.78907 -0.48828,0.5664 -3.10547,3.28125 -2.61718,2.69531 -7.38281,7.55859 z"
         style=""
         id="path4573" />
      <path
         d="m 241.16336,735.68134 4.12109,0 0,3.35937 -3.20312,6.25 -2.51953,0 1.60156,-6.25 0,-3.35937 z"
         style=""
         id="path4575" />
      <path
         d="m 266.90555,737.32196 6.44531,0 0,-22.24609 -7.01172,1.40625 0,-3.59375 6.97266,-1.40625 3.94531,0 0,25.83984 6.44531,0 0,3.32031 -16.79687,0 0,-3.32031 z"
         style=""
         id="path4577" />
      <path
         d="m 290.61649,710.29071 3.125,0 q 2.92968,4.60938 4.375,9.02344 1.46484,4.41406 1.46484,8.76953 0,4.375 -1.46484,8.80859 -1.44532,4.4336 -4.375,9.02344 l -3.125,0 q 2.59765,-4.47266 3.86718,-8.88672 1.28907,-4.43359 1.28907,-8.94531 0,-4.51172 -1.28907,-8.90625 -1.26953,-4.39453 -3.86718,-8.88672 z"
         style=""
         id="path4579" />
      <path
         d="m 307.72586,735.68134 4.12109,0 0,3.35937 -3.20312,6.25 -2.51953,0 1.60156,-6.25 0,-3.35937 z"
         style=""
         id="path4581" />
      <path
         d="m 340.90945,710.29071 q -2.61718,4.49219 -3.88671,8.88672 -1.26954,4.39453 -1.26954,8.90625 0,4.51172 1.26954,8.94531 1.28906,4.41406 3.88671,8.88672 l -3.125,0 q -2.92968,-4.58984 -4.39453,-9.02344 -1.44531,-4.43359 -1.44531,-8.80859 0,-4.35547 1.44531,-8.76953 1.44532,-4.41406 4.39453,-9.02344 l 3.125,0 z"
         style=""
         id="path4583" />
      <path
         d="m 356.84695,714.07977 q -3.04687,0 -4.58984,3.00782 -1.52344,2.98828 -1.52344,9.0039 0,5.9961 1.52344,9.00391 1.54297,2.98828 4.58984,2.98828 3.06641,0 4.58985,-2.98828 1.54297,-3.00781 1.54297,-9.00391 0,-6.01562 -1.54297,-9.0039 -1.52344,-3.00782 -4.58985,-3.00782 z m 0,-3.125 q 4.90235,0 7.48047,3.88672 2.59766,3.86719 2.59766,11.25 0,7.36328 -2.59766,11.25 -2.57812,3.86719 -7.48047,3.86719 -4.90234,0 -7.5,-3.86719 -2.57812,-3.88672 -2.57812,-11.25 0,-7.38281 2.57812,-11.25 2.59766,-3.88672 7.5,-3.88672 z"
         style=""
         id="path4585" />
      <path
         d="m 374.28836,735.68134 4.12109,0 0,3.35937 -3.20312,6.25 -2.51953,0 1.60156,-6.25 0,-3.35937 z"
         style=""
         id="path4587" />
      <path
         d="m 402.74539,737.32196 13.76953,0 0,3.32031 -18.51562,0 0,-3.32031 q 2.24609,-2.32422 6.11328,-6.23047 3.88672,-3.92578 4.88281,-5.05859 1.89453,-2.12891 2.63672,-3.59375 0.76172,-1.48438 0.76172,-2.91016 0,-2.32422 -1.64063,-3.78906 -1.62109,-1.46484 -4.23828,-1.46484 -1.85547,0 -3.92578,0.64453 -2.05078,0.64453 -4.39453,1.95312 l 0,-3.98437 q 2.38281,-0.95703 4.45313,-1.44532 2.07031,-0.48828 3.78906,-0.48828 4.53125,0 7.22656,2.26563 2.69531,2.26562 2.69531,6.05469 0,1.79687 -0.68359,3.41796 -0.66406,1.60157 -2.44141,3.78907 -0.48828,0.5664 -3.10547,3.28125 -2.61718,2.69531 -7.38281,7.55859 z"
         style=""
         id="path4589" />
      <path
         d="m 423.74149,710.29071 3.125,0 q 2.92968,4.60938 4.375,9.02344 1.46484,4.41406 1.46484,8.76953 0,4.375 -1.46484,8.80859 -1.44532,4.4336 -4.375,9.02344 l -3.125,0 q 2.59765,-4.47266 3.86718,-8.88672 1.28907,-4.43359 1.28907,-8.94531 0,-4.51172 -1.28907,-8.90625 -1.26953,-4.39453 -3.86718,-8.88672 z"
         style=""
         id="path4591" />
      <path
         d="m 440.85086,735.68134 4.12109,0 0,3.35937 -3.20312,6.25 -2.51953,0 1.60156,-6.25 0,-3.35937 z"
         style=""
         id="path4593" />
      <path
         d="m 474.03445,710.29071 q -2.61718,4.49219 -3.88671,8.88672 -1.26954,4.39453 -1.26954,8.90625 0,4.51172 1.26954,8.94531 1.28906,4.41406 3.88671,8.88672 l -3.125,0 q -2.92968,-4.58984 -4.39453,-9.02344 -1.44531,-4.43359 -1.44531,-8.80859 0,-4.35547 1.44531,-8.76953 1.44532,-4.41406 4.39453,-9.02344 l 3.125,0 z"
         style=""
         id="path4595" />
      <path
         d="m 479.21024,728.08368 10.52734,0 0,3.20312 -10.52734,0 0,-3.20312 z"
         style=""
         id="path4597" />
      <path
         d="m 499.38602,737.32196 13.76953,0 0,3.32031 -18.51563,0 0,-3.32031 q 2.2461,-2.32422 6.11328,-6.23047 3.88672,-3.92578 4.88282,-5.05859 1.89453,-2.12891 2.63672,-3.59375 0.76171,-1.48438 0.76171,-2.91016 0,-2.32422 -1.64062,-3.78906 -1.62109,-1.46484 -4.23828,-1.46484 -1.85547,0 -3.92578,0.64453 -2.05078,0.64453 -4.39453,1.95312 l 0,-3.98437 q 2.38281,-0.95703 4.45312,-1.44532 2.07031,-0.48828 3.78906,-0.48828 4.53125,0 7.22657,2.26563 2.69531,2.26562 2.69531,6.05469 0,1.79687 -0.6836,3.41796 -0.66406,1.60157 -2.4414,3.78907 -0.48828,0.5664 -3.10547,3.28125 -2.61719,2.69531 -7.38281,7.55859 z"
         style=""
         id="path4599" />
      <path
         d="m 521.86649,735.68134 4.12109,0 0,3.35937 -3.20313,6.25 -2.51953,0 1.60157,-6.25 0,-3.35937 z"
         style=""
         id="path4601" />
      <path
         d="m 547.60867,737.32196 6.44532,0 0,-22.24609 -7.01172,1.40625 0,-3.59375 6.97265,-1.40625 3.94532,0 0,25.83984 6.44531,0 0,3.32031 -16.79688,0 0,-3.32031 z"
         style=""
         id="path4603" />
      <path
         d="m 571.31961,710.29071 3.125,0 q 2.92969,4.60938 4.375,9.02344 1.46484,4.41406 1.46484,8.76953 0,4.375 -1.46484,8.80859 -1.44531,4.4336 -4.375,9.02344 l -3.125,0 q 2.59766,-4.47266 3.86719,-8.88672 1.28906,-4.43359 1.28906,-8.94531 0,-4.51172 -1.28906,-8.90625 -1.26953,-4.39453 -3.86719,-8.88672 z"
         style=""
         id="path4605" />
    </g>
    <path
       style="fill:none;fill-rule:evenodd;stroke:#000000;stroke-width:0.71904504px;stroke-linecap:butt;stroke-linejoin:miter;stroke-opacity:1;marker-start:url(#marker4664-8)"
       d="M 229.79551,701.54686 112.86965,600.65703"
       id="path4166-9" />
    <path
       style="fill:none;fill-rule:evenodd;stroke:#000000;stroke-width:0.71904504px;stroke-linecap:butt;stroke-linejoin:miter;stroke-opacity:1;marker-start:url(#marker4664-8-2)"
       d="M 373.25254,703.50549 256.32668,602.61567"
       id="path4166-9-2" />
    <path
       style="fill:none;fill-rule:evenodd;stroke:#000000;stroke-width:0.65501022px;stroke-linecap:butt;stroke-linejoin:miter;stroke-opacity:1;marker-start:url(#marker4664-8-3)"
       d="M 382.35254,703.60343 480.16469,603.52301"
       id="path4166-9-5" />
    <path
       style="fill:none;fill-rule:evenodd;stroke:#000000;stroke-width:0.65501022px;stroke-linecap:butt;stroke-linejoin:miter;stroke-opacity:1;marker-start:url(#marker4664-8-3-9)"
       d="M 516.06871,704.09048 613.88086,604.01006"
       id="path4166-9-5-2" />
    <g
       style="font-style:normal;font-weight:normal;font-size:40px;line-height:125%;font-family:sans-serif;letter-spacing:0px;word-spacing:0px;fill:#000000;fill-opacity:1;stroke:none;stroke-width:1px;stroke-linecap:butt;stroke-linejoin:miter;stroke-opacity:1"
       id="text8096">
      <path
         d="m 643.23096,433.36667 0,11.60156 -3.61328,0 0,-30.19531 3.61328,0 0,3.32031 q 1.13281,-1.95312 2.85156,-2.89062 1.73828,-0.95704 4.14062,-0.95704 3.98438,0 6.46485,3.16407 2.5,3.16406 2.5,8.32031 0,5.15625 -2.5,8.32031 -2.48047,3.16406 -6.46485,3.16406 -2.40234,0 -4.14062,-0.9375 -1.71875,-0.95703 -2.85156,-2.91015 z m 12.22656,-7.63672 q 0,-3.96484 -1.64063,-6.21094 -1.62109,-2.26562 -4.47265,-2.26562 -2.85156,0 -4.49219,2.26562 -1.62109,2.2461 -1.62109,6.21094 0,3.96484 1.62109,6.23047 1.64063,2.24609 4.49219,2.24609 2.85156,0 4.47265,-2.24609 1.64063,-2.26563 1.64063,-6.23047 z"
         style=""
         id="path4608" />
      <path
         d="m 663.82568,430.42917 2.33594,0 0,14.21875 -2.33594,0 0,-14.21875 z m 0,-5.53516 2.33594,0 0,2.95801 -2.33594,0 0,-2.95801 z"
         style="font-size:64.99999762%;baseline-shift:sub"
         id="path4610" />
      <path
         d="m 669.85596,436.48483 6.84277,0 0,2.08203 -6.84277,0 0,-2.08203 z"
         style="font-size:64.99999762%;baseline-shift:sub"
         id="path4612" />
      <path
         d="m 681.20557,442.48972 4.18945,0 0,-14.45997 -4.55762,0.91407 0,-2.33594 4.53223,-0.91406 2.56445,0 0,16.7959 4.18946,0 0,2.1582 -10.91797,0 0,-2.1582 z"
         style="font-size:64.99999762%;baseline-shift:sub"
         id="path4615" />
    </g>
    <g
       style="font-style:normal;font-weight:normal;font-size:40px;line-height:125%;font-family:sans-serif;letter-spacing:0px;word-spacing:0px;fill:#000000;fill-opacity:1;stroke:none;stroke-width:1px;stroke-linecap:butt;stroke-linejoin:miter;stroke-opacity:1"
       id="text8096-8">
      <path
         d="m 652.40118,737.36102 0,11.60157 -3.61328,0 0,-30.19532 3.61328,0 0,3.32032 q 1.13282,-1.95313 2.85157,-2.89063 1.73828,-0.95703 4.14062,-0.95703 3.98438,0 6.46485,3.16406 2.5,3.16406 2.5,8.32031 0,5.15625 -2.5,8.32032 -2.48047,3.16406 -6.46485,3.16406 -2.40234,0 -4.14062,-0.9375 -1.71875,-0.95703 -2.85157,-2.91016 z m 12.22657,-7.63672 q 0,-3.96484 -1.64063,-6.21093 -1.62109,-2.26563 -4.47265,-2.26563 -2.85157,0 -4.49219,2.26563 -1.6211,2.24609 -1.6211,6.21093 0,3.96485 1.6211,6.23047 1.64062,2.2461 4.49219,2.2461 2.85156,0 4.47265,-2.2461 1.64063,-2.26562 1.64063,-6.23047 z"
         style=""
         id="path4618" />
      <path
         d="m 672.99591,734.42352 2.33594,0 0,14.21875 -2.33594,0 0,-14.21875 z m 0,-5.53515 2.33594,0 0,2.958 -2.33594,0 0,-2.958 z"
         style="font-size:64.99999762%;baseline-shift:sub"
         id="path4620" />
    </g>
  </g>
</svg>
